<?xml version="1.0" encoding="utf-8"?>
<!-- Generator: Adobe Illustrator 23.1.1, SVG Export Plug-In . SVG Version: 6.00 Build 0)  -->
<svg version="1.1" id="Layer_1" xmlns="http://www.w3.org/2000/svg" xmlns:xlink="http://www.w3.org/1999/xlink" x="0px" y="0px"
	 viewBox="0 0 230 52" style="enable-background:new 0 0 230 52;" xml:space="preserve">
<style type="text/css">
	.st0{fill:url(#SVGID_1_);}
	.st1{fill:url(#SVGID_2_);}
</style>
<g transform="matrix(2.8767978874143214,0,0,2.8767978874143214,95.5909949728622,124.46842012096204)">
	<path d="M-11.7-35.3v2.2c0,2.6,1.6,4,4.1,4c2.6,0,3.9-1.4,3.9-3.6V-33h-1.8v0.3c0,1.1-0.5,1.9-2,1.9c-1.4,0-2.2-0.9-2.2-2.2v-2.4
		c0-1.2,0.8-2.2,2.2-2.2c1.3,0,2,0.8,2,1.9v0.3h1.8v-0.3c0-2.2-1.4-3.6-3.9-3.6C-10.1-39.3-11.7-37.8-11.7-35.3z M-2.5-39.1v9.8h1.8
		v-3.6c0-1.2,0.6-1.9,1.7-1.9c1,0,1.6,0.6,1.6,1.5v4h1.8v-4.2c0-1.8-1.2-2.9-2.7-2.9c-1.3,0-1.9,0.6-2.2,1.2h-0.2v-4H-2.5z
		 M5.6-34.7L7-33.8C7.5-34.5,8.1-35,9-35c0.9,0,1.5,0.5,1.5,1.2v0.2l-2.8,0.3c-1.3,0.1-2.2,0.9-2.2,2c0,1.3,1,2.2,2.6,2.2
		c1.5,0,2-0.7,2.2-1h0.2v0.8h1.7v-4.4c0-1.6-1.2-2.7-3.1-2.7C7.4-36.5,6.4-35.7,5.6-34.7z M7.3-31.4c0-0.4,0.3-0.6,1-0.7l2.1-0.3
		v0.1c0,0.9-0.7,1.7-1.9,1.7C7.7-30.6,7.3-30.9,7.3-31.4z M21-36.3h-2.5l-2.8,2.4h-0.2v-5.2h-1.8v9.8h1.8v-2.4l1.1-0.9l2.2,3.3h2
		l-3-4.3L21-36.3z M21.9-39.1v9.8h1.8v-3.6c0-1.2,0.6-1.9,1.7-1.9c1,0,1.6,0.6,1.6,1.5v4h1.8v-4.2c0-1.8-1.2-2.9-2.7-2.9
		c-1.3,0-1.9,0.6-2.2,1.2h-0.2v-4H21.9z M30-34.7l1.4,0.9c0.4-0.7,1-1.2,1.9-1.2c1,0,1.5,0.5,1.5,1.2v0.2L32-33.3
		c-1.3,0.1-2.2,0.9-2.2,2c0,1.3,1,2.2,2.6,2.2c1.5,0,2-0.7,2.2-1h0.2v0.8h1.7v-4.4c0-1.6-1.2-2.7-3.1-2.7
		C31.7-36.5,30.8-35.7,30-34.7z M31.7-31.4c0-0.4,0.3-0.6,1-0.7l2.1-0.3v0.1c0,0.9-0.7,1.7-1.9,1.7C32.1-30.6,31.7-30.9,31.7-31.4z
		 M38.2-36.3v7h1.8v-3.6c0-1.2,0.6-1.9,1.7-1.9c1,0,1.6,0.6,1.6,1.5v4H45v-4.2c0-1.8-1.2-2.9-2.7-2.9c-1.3,0-1.9,0.6-2.2,1.2h-0.2
		v-1.1H38.2z"/>
</g>
<g transform="matrix(0.4885762001521293,0,0,0.4885762001521293,37.55711899923935,125.5711906913074)">
	
		<linearGradient id="SVGID_1_" gradientUnits="userSpaceOnUse" x1="-454.3974" y1="600.9504" x2="-453.3969" y2="600.9504" gradientTransform="matrix(39.852 18.5833 18.5833 -39.852 6864.5327 32165.625)">
		<stop  offset="0" style="stop-color:#783192"/>
		<stop  offset="1" style="stop-color:#59BCC8"/>
	</linearGradient>
	<path class="st0" d="M-23.8-240.7c7.6,14.8,21.8,25.2,38.1,28.1c0.7,2.8,1.1,5.8,1.1,8.8c0,20.4-16.6,37-37,37s-37-16.6-37-37
		C-58.6-223.5-43.2-239.6-23.8-240.7 M-21.6-248.8c-24.9,0-45,20.1-45,45s20.1,45,45,45s45-20.1,45-45c0-5.7-1.1-11.2-3-16.2
		c-17.8-1.2-32.8-12.7-39-28.7C-19.6-248.8-20.6-248.8-21.6-248.8z"/>
	
		<linearGradient id="SVGID_2_" gradientUnits="userSpaceOnUse" x1="-411.3736" y1="576.8455" x2="-410.3736" y2="576.8455" gradientTransform="matrix(7.9704 4.1296 3.7167 -8.856 1086.2985 6593.3838)">
		<stop  offset="0" style="stop-color:#783192"/>
		<stop  offset="1" style="stop-color:#59BCC8"/>
	</linearGradient>
	<path class="st1" d="M-41.6-219.8c-2.5,0-4.5,2-4.5,4.5s2,4.5,4.5,4.5c2.5,0,4.5-2,4.5-4.5S-39.1-219.8-41.6-219.8z M-32.6-208.8
		c-2.5,0-4.5,2-4.5,4.5c0,2.5,2,4.5,4.5,4.5c2.5,0,4.5-2,4.5-4.5C-28.1-206.8-30.1-208.8-32.6-208.8z M-43.5-206.9
		c-1.4,0-2.6,1.2-2.6,2.6c0,1.4,1.2,2.6,2.6,2.6s2.6-1.2,2.6-2.6C-40.9-205.7-42.1-206.9-43.5-206.9z"/>
</g>
</svg>
